<?xml version="1.0" encoding="UTF-8" standalone="no"?>
<!DOCTYPE svg PUBLIC "-//W3C//DTD SVG 1.1//EN" "http://www.w3.org/Graphics/SVG/1.1/DTD/svg11.dtd">
<svg width="100%" height="100%" viewBox="0 0 1280 360" version="1.1" xmlns="http://www.w3.org/2000/svg" xmlns:xlink="http://www.w3.org/1999/xlink" xml:space="preserve" xmlns:serif="http://www.serif.com/" style="fill-rule:evenodd;clip-rule:evenodd;stroke-linejoin:round;stroke-miterlimit:2;">
    <g transform="matrix(1.17385,0,0,1.17385,51.0461,-165.058)">
        <g transform="matrix(1,0,0,1,-109.29,7.38381)">
            <path d="M199.978,291.736L199.978,312.616L187.45,312.616C178.522,312.616 171.562,310.432 166.57,306.064C161.578,301.696 159.082,294.568 159.082,284.68L159.082,252.712L149.29,252.712L149.29,232.264L159.082,232.264L159.082,212.68L183.706,212.68L183.706,232.264L199.834,232.264L199.834,252.712L183.706,252.712L183.706,284.968C183.706,287.368 184.282,289.096 185.434,290.152C186.586,291.208 188.506,291.736 191.194,291.736L199.978,291.736Z" style="fill:rgb(102,60,204);fill-rule:nonzero;"/>
        </g>
        <g transform="matrix(1,0,0,1,-110.531,6.23181)">
            <path d="M478.906,271.144C478.906,273.448 478.762,275.848 478.474,278.344L422.746,278.344C423.13,283.336 424.738,287.152 427.57,289.792C430.402,292.432 433.882,293.752 438.01,293.752C444.154,293.752 448.426,291.16 450.826,285.976L477.034,285.976C475.69,291.256 473.266,296.008 469.762,300.232C466.258,304.456 461.866,307.768 456.586,310.168C451.306,312.568 445.402,313.768 438.874,313.768C431.002,313.768 423.994,312.088 417.85,308.728C411.706,305.368 406.906,300.568 403.45,294.328C399.994,288.088 398.266,280.792 398.266,272.44C398.266,264.088 399.97,256.792 403.378,250.552C406.786,244.312 411.562,239.512 417.706,236.152C423.85,232.792 430.906,231.112 438.874,231.112C446.65,231.112 453.562,232.744 459.61,236.008C465.658,239.272 470.386,243.928 473.794,249.976C477.202,256.024 478.906,263.08 478.906,271.144ZM453.706,264.664C453.706,260.44 452.266,257.08 449.386,254.584C446.506,252.088 442.906,250.84 438.586,250.84C434.458,250.84 430.978,252.04 428.146,254.44C425.314,256.84 423.562,260.248 422.89,264.664L453.706,264.664Z" style="fill:rgb(102,60,204);fill-rule:nonzero;"/>
        </g>
        <g transform="matrix(1,0,0,1,-113.719,7.31981)">
            <path d="M536.65,291.736L536.65,312.616L524.122,312.616C515.194,312.616 508.234,310.432 503.242,306.064C498.25,301.696 495.754,294.568 495.754,284.68L495.754,252.712L485.962,252.712L485.962,232.264L495.754,232.264L495.754,212.68L520.378,212.68L520.378,232.264L536.506,232.264L536.506,252.712L520.378,252.712L520.378,284.968C520.378,287.368 520.954,289.096 522.106,290.152C523.258,291.208 525.178,291.736 527.866,291.736L536.65,291.736Z" style="fill:rgb(102,60,204);fill-rule:nonzero;"/>
        </g>
        <g transform="matrix(1,0,0,1,-123.532,6.23181)">
            <path d="M599.722,231.4C608.938,231.4 616.33,234.448 621.898,240.544C627.466,246.64 630.25,255.016 630.25,265.672L630.25,312.616L605.77,312.616L605.77,268.984C605.77,263.608 604.378,259.432 601.594,256.456C598.81,253.48 595.066,251.992 590.362,251.992C585.658,251.992 581.914,253.48 579.13,256.456C576.346,259.432 574.954,263.608 574.954,268.984L574.954,312.616L550.33,312.616L550.33,206.056L574.954,206.056L574.954,243.064C577.45,239.512 580.858,236.68 585.178,234.568C589.498,232.456 594.346,231.4 599.722,231.4Z" style="fill:rgb(102,60,204);fill-rule:nonzero;"/>
        </g>
        <g transform="matrix(1,0,0,1,-131.904,5.07981)">
            <path d="M723.13,271.144C723.13,273.448 722.986,275.848 722.698,278.344L666.97,278.344C667.354,283.336 668.962,287.152 671.794,289.792C674.626,292.432 678.106,293.752 682.234,293.752C688.378,293.752 692.65,291.16 695.05,285.976L721.258,285.976C719.914,291.256 717.49,296.008 713.986,300.232C710.482,304.456 706.09,307.768 700.81,310.168C695.53,312.568 689.626,313.768 683.098,313.768C675.226,313.768 668.218,312.088 662.074,308.728C655.93,305.368 651.13,300.568 647.674,294.328C644.218,288.088 642.49,280.792 642.49,272.44C642.49,264.088 644.194,256.792 647.602,250.552C651.01,244.312 655.786,239.512 661.93,236.152C668.074,232.792 675.13,231.112 683.098,231.112C690.874,231.112 697.786,232.744 703.834,236.008C709.882,239.272 714.61,243.928 718.018,249.976C721.426,256.024 723.13,263.08 723.13,271.144ZM697.93,264.664C697.93,260.44 696.49,257.08 693.61,254.584C690.73,252.088 687.13,250.84 682.81,250.84C678.682,250.84 675.202,252.04 672.37,254.44C669.538,256.84 667.786,260.248 667.114,264.664L697.93,264.664Z" style="fill:rgb(102,60,204);fill-rule:nonzero;"/>
        </g>
        <g transform="matrix(1,0,0,1,-140.996,7.31981)">
            <path d="M760.714,245.656C763.594,241.24 767.194,237.76 771.514,235.216C775.834,232.672 780.634,231.4 785.914,231.4L785.914,257.464L779.146,257.464C773.002,257.464 768.394,258.784 765.322,261.424C762.25,264.064 760.714,268.696 760.714,275.32L760.714,312.616L736.09,312.616L736.09,232.264L760.714,232.264L760.714,245.656Z" style="fill:rgb(102,60,204);fill-rule:nonzero;"/>
        </g>
        <g transform="matrix(1,0,0,1,-0.0705372,-174.942)">
            <path d="M697.816,415.23C707.224,415.23 714.736,418.278 720.352,424.374C725.968,430.47 728.776,438.846 728.776,449.502L728.776,496.446L704.296,496.446L704.296,452.814C704.296,447.438 702.904,443.262 700.12,440.286C697.336,437.31 693.592,435.822 688.888,435.822C684.184,435.822 680.44,437.31 677.656,440.286C674.872,443.262 673.48,447.438 673.48,452.814L673.48,496.446L648.856,496.446L648.856,416.094L673.48,416.094L673.48,426.75C675.976,423.198 679.336,420.39 683.56,418.326C687.784,416.262 692.536,415.23 697.816,415.23Z" style="fill:rgb(102,60,204);fill-rule:nonzero;"/>
        </g>
        <g transform="matrix(1,0,0,1,-8.44292,-174.942)">
            <path d="M821.656,454.974C821.656,457.278 821.512,459.678 821.224,462.174L765.496,462.174C765.88,467.166 767.488,470.982 770.32,473.622C773.152,476.262 776.632,477.582 780.76,477.582C786.904,477.582 791.176,474.99 793.576,469.806L819.784,469.806C818.44,475.086 816.016,479.838 812.512,484.062C809.008,488.286 804.616,491.598 799.336,493.998C794.056,496.398 788.152,497.598 781.624,497.598C773.752,497.598 766.744,495.918 760.6,492.558C754.456,489.198 749.656,484.398 746.2,478.158C742.744,471.918 741.016,464.622 741.016,456.27C741.016,447.918 742.72,440.622 746.128,434.382C749.536,428.142 754.312,423.342 760.456,419.982C766.6,416.622 773.656,414.942 781.624,414.942C789.4,414.942 796.312,416.574 802.36,419.838C808.408,423.102 813.136,427.758 816.544,433.806C819.952,439.854 821.656,446.91 821.656,454.974ZM796.456,448.494C796.456,444.27 795.016,440.91 792.136,438.414C789.256,435.918 785.656,434.67 781.336,434.67C777.208,434.67 773.728,435.87 770.896,438.27C768.064,440.67 766.312,444.078 765.64,448.494L796.456,448.494Z" style="fill:rgb(102,60,204);fill-rule:nonzero;"/>
        </g>
        <g transform="matrix(1,0,0,1,-13.2153,-174.942)">
            <path d="M867.304,497.598C860.296,497.598 854.056,496.398 848.584,493.998C843.112,491.598 838.792,488.31 835.624,484.134C832.456,479.958 830.68,475.278 830.296,470.094L854.632,470.094C854.92,472.878 856.216,475.134 858.52,476.862C860.824,478.59 863.656,479.454 867.016,479.454C870.088,479.454 872.464,478.854 874.144,477.654C875.824,476.454 876.664,474.894 876.664,472.974C876.664,470.67 875.464,468.966 873.064,467.862C870.664,466.758 866.776,465.534 861.4,464.19C855.64,462.846 850.84,461.43 847,459.942C843.16,458.454 839.848,456.102 837.064,452.886C834.28,449.67 832.888,445.326 832.888,439.854C832.888,435.246 834.16,431.046 836.704,427.254C839.248,423.462 842.992,420.462 847.936,418.254C852.88,416.046 858.76,414.942 865.576,414.942C875.656,414.942 883.6,417.438 889.408,422.43C895.216,427.422 898.552,434.046 899.416,442.302L876.664,442.302C876.28,439.518 875.056,437.31 872.992,435.678C870.928,434.046 868.216,433.23 864.856,433.23C861.976,433.23 859.768,433.782 858.232,434.886C856.696,435.99 855.928,437.502 855.928,439.422C855.928,441.726 857.152,443.454 859.6,444.606C862.048,445.758 865.864,446.91 871.048,448.062C877,449.598 881.848,451.11 885.592,452.598C889.336,454.086 892.624,456.486 895.456,459.798C898.288,463.11 899.752,467.55 899.848,473.118C899.848,477.822 898.528,482.022 895.888,485.718C893.248,489.414 889.456,492.318 884.512,494.43C879.568,496.542 873.832,497.598 867.304,497.598Z" style="fill:rgb(102,60,204);fill-rule:nonzero;"/>
        </g>
        <g transform="matrix(1,0,0,1,-20.1477,-174.942)">
            <path d="M947.656,497.598C940.648,497.598 934.408,496.398 928.936,493.998C923.464,491.598 919.144,488.31 915.976,484.134C912.808,479.958 911.032,475.278 910.648,470.094L934.984,470.094C935.272,472.878 936.568,475.134 938.872,476.862C941.176,478.59 944.008,479.454 947.368,479.454C950.44,479.454 952.816,478.854 954.496,477.654C956.176,476.454 957.016,474.894 957.016,472.974C957.016,470.67 955.816,468.966 953.416,467.862C951.016,466.758 947.128,465.534 941.752,464.19C935.992,462.846 931.192,461.43 927.352,459.942C923.512,458.454 920.2,456.102 917.416,452.886C914.632,449.67 913.24,445.326 913.24,439.854C913.24,435.246 914.512,431.046 917.056,427.254C919.6,423.462 923.344,420.462 928.288,418.254C933.232,416.046 939.112,414.942 945.928,414.942C956.008,414.942 963.952,417.438 969.76,422.43C975.568,427.422 978.904,434.046 979.768,442.302L957.016,442.302C956.632,439.518 955.408,437.31 953.344,435.678C951.28,434.046 948.568,433.23 945.208,433.23C942.328,433.23 940.12,433.782 938.584,434.886C937.048,435.99 936.28,437.502 936.28,439.422C936.28,441.726 937.504,443.454 939.952,444.606C942.4,445.758 946.216,446.91 951.4,448.062C957.352,449.598 962.2,451.11 965.944,452.598C969.688,454.086 972.976,456.486 975.808,459.798C978.64,463.11 980.104,467.55 980.2,473.118C980.2,477.822 978.88,482.022 976.24,485.718C973.6,489.414 969.808,492.318 964.864,494.43C959.92,496.542 954.184,497.598 947.656,497.598Z" style="fill:rgb(102,60,204);fill-rule:nonzero;"/>
        </g>
        <g transform="matrix(1.13381,0,0,1.13381,-381.645,-246.905)">
            <path d="M513,405L513,448L500,448L500,427.899L481.662,446.237C485.652,451.81 488,458.633 488,466C488,484.765 472.765,500 454,500C435.235,500 420,484.765 420,466C420,447.235 435.235,432 454,432C460.333,432 466.264,433.735 471.344,436.757L491.101,417L470,417L470,405L513,405ZM454,446C465.038,446 474,454.962 474,466C474,477.038 465.038,486 454,486C442.962,486 434,477.038 434,466C434,454.962 442.962,446 454,446Z" style="fill:rgb(102,153,255);"/>
        </g>
        <g transform="matrix(1.16396,0,0,1.16396,-168.599,-262.83)">
            <path d="M347.366,499.352C331.771,496.261 320,482.495 320,466C320,447.235 335.235,432 354,432C370.718,432 385,439 387.471,456L373.083,456C370,447 362.949,446 354,446C342.962,446 334,454.962 334,466C334,477.038 342.962,486 354,486C362.565,486 370.225,481.471 372.669,475L352,475L352,461L388,461C388.984,464.938 388.95,468.154 388.044,474.686L388,475C387.136,483.643 376.385,496.021 361.366,499.222L361.366,520L373.5,520L373.5,534L361.366,534L361.366,548L347.366,548L347.366,534L333.5,534L333.5,520L347.366,520L347.366,499.352Z" style="fill:rgb(255,102,204);"/>
        </g>
    </g>
</svg>
